<?xml version="1.0" encoding="utf-8" standalone="no"?>
<!DOCTYPE svg PUBLIC "-//W3C//DTD SVG 1.1//EN"
  "http://www.w3.org/Graphics/SVG/1.1/DTD/svg11.dtd">
<svg xmlns:xlink="http://www.w3.org/1999/xlink" width="641.211094pt" height="352.310625pt" viewBox="0 0 641.211094 352.310625" xmlns="http://www.w3.org/2000/svg" version="1.1">
 <metadata>
  <rdf:RDF xmlns:dc="http://purl.org/dc/elements/1.1/" xmlns:cc="http://creativecommons.org/ns#" xmlns:rdf="http://www.w3.org/1999/02/22-rdf-syntax-ns#">
   <cc:Work>
    <dc:type rdf:resource="http://purl.org/dc/dcmitype/StillImage"/>
    <dc:date>2026-05-20T11:51:52.819412</dc:date>
    <dc:format>image/svg+xml</dc:format>
    <dc:creator>
     <cc:Agent>
      <dc:title>Matplotlib v3.10.8, https://matplotlib.org/</dc:title>
     </cc:Agent>
    </dc:creator>
   </cc:Work>
  </rdf:RDF>
 </metadata>
 <defs>
  <style type="text/css">*{stroke-linejoin: round; stroke-linecap: butt}</style>
 </defs>
 <g id="figure_1">
  <g id="patch_1">
   <path d="M 0 352.310625 
L 641.211094 352.310625 
L 641.211094 0 
L 0 0 
z
" style="fill: #ffffff"/>
  </g>
  <g id="axes_1">
   <g id="patch_2">
    <path d="M 48.401094 315.238281 
L 634.011094 315.238281 
L 634.011094 21.558281 
L 48.401094 21.558281 
z
" style="fill: #ffffff"/>
   </g>
   <g id="matplotlib.axis_1">
    <g id="xtick_1">
     <g id="line2d_1">
      <defs>
       <path id="m7dbf9cb3ec" d="M 0 0 
L 0 3.5 
" style="stroke: #4a4a4a; stroke-width: 0.8"/>
      </defs>
      <g>
       <use xlink:href="#m7dbf9cb3ec" x="144.362396" y="315.238281" style="fill: #4a4a4a; stroke: #4a4a4a; stroke-width: 0.8"/>
      </g>
     </g>
     <g id="text_1">
      <text style="font-size: 9px; font-family: 'DejaVu Sans'; text-anchor: middle" x="144.362396" y="329.076875" transform="rotate(-0 144.362396 329.076875)">500</text>
     </g>
    </g>
    <g id="xtick_2">
     <g id="line2d_2">
      <g>
       <use xlink:href="#m7dbf9cb3ec" x="281.059408" y="315.238281" style="fill: #4a4a4a; stroke: #4a4a4a; stroke-width: 0.8"/>
      </g>
     </g>
     <g id="text_2">
      <text style="font-size: 9px; font-family: 'DejaVu Sans'; text-anchor: middle" x="281.059408" y="329.076875" transform="rotate(-0 281.059408 329.076875)">1k</text>
     </g>
    </g>
    <g id="xtick_3">
     <g id="line2d_3">
      <g>
       <use xlink:href="#m7dbf9cb3ec" x="417.756421" y="315.238281" style="fill: #4a4a4a; stroke: #4a4a4a; stroke-width: 0.8"/>
      </g>
     </g>
     <g id="text_3">
      <text style="font-size: 9px; font-family: 'DejaVu Sans'; text-anchor: middle" x="417.756421" y="329.076875" transform="rotate(-0 417.756421 329.076875)">1.5k</text>
     </g>
    </g>
    <g id="xtick_4">
     <g id="line2d_4">
      <g>
       <use xlink:href="#m7dbf9cb3ec" x="554.453433" y="315.238281" style="fill: #4a4a4a; stroke: #4a4a4a; stroke-width: 0.8"/>
      </g>
     </g>
     <g id="text_4">
      <text style="font-size: 9px; font-family: 'DejaVu Sans'; text-anchor: middle" x="554.453433" y="329.076875" transform="rotate(-0 554.453433 329.076875)">2k</text>
     </g>
    </g>
    <g id="text_5">
     <text style="font-size: 10.5px; font-family: 'DejaVu Sans'; text-anchor: middle" x="341.206094" y="342.926953" transform="rotate(-0 341.206094 342.926953)">Training step</text>
    </g>
   </g>
   <g id="matplotlib.axis_2">
    <g id="ytick_1">
     <g id="line2d_5">
      <path d="M 48.401094 282.377414 
L 634.011094 282.377414 
" clip-path="url(#pb0ff9eeac3)" style="fill: none; stroke: #d0d0d0; stroke-opacity: 0.65; stroke-width: 0.6; stroke-linecap: round"/>
     </g>
     <g id="line2d_6">
      <defs>
       <path id="mcb048820ec" d="M 0 0 
L -3.5 0 
" style="stroke: #4a4a4a; stroke-width: 0.8"/>
      </defs>
      <g>
       <use xlink:href="#mcb048820ec" x="48.401094" y="282.377414" style="fill: #4a4a4a; stroke: #4a4a4a; stroke-width: 0.8"/>
      </g>
     </g>
     <g id="text_6">
      <text style="font-size: 9px; font-family: 'DejaVu Sans'; text-anchor: end" x="41.401094" y="285.796711" transform="rotate(-0 41.401094 285.796711)">1.68</text>
     </g>
    </g>
    <g id="ytick_2">
     <g id="line2d_7">
      <path d="M 48.401094 246.350406 
L 634.011094 246.350406 
" clip-path="url(#pb0ff9eeac3)" style="fill: none; stroke: #d0d0d0; stroke-opacity: 0.65; stroke-width: 0.6; stroke-linecap: round"/>
     </g>
     <g id="line2d_8">
      <g>
       <use xlink:href="#mcb048820ec" x="48.401094" y="246.350406" style="fill: #4a4a4a; stroke: #4a4a4a; stroke-width: 0.8"/>
      </g>
     </g>
     <g id="text_7">
      <text style="font-size: 9px; font-family: 'DejaVu Sans'; text-anchor: end" x="41.401094" y="249.769703" transform="rotate(-0 41.401094 249.769703)">1.70</text>
     </g>
    </g>
    <g id="ytick_3">
     <g id="line2d_9">
      <path d="M 48.401094 210.323399 
L 634.011094 210.323399 
" clip-path="url(#pb0ff9eeac3)" style="fill: none; stroke: #d0d0d0; stroke-opacity: 0.65; stroke-width: 0.6; stroke-linecap: round"/>
     </g>
     <g id="line2d_10">
      <g>
       <use xlink:href="#mcb048820ec" x="48.401094" y="210.323399" style="fill: #4a4a4a; stroke: #4a4a4a; stroke-width: 0.8"/>
      </g>
     </g>
     <g id="text_8">
      <text style="font-size: 9px; font-family: 'DejaVu Sans'; text-anchor: end" x="41.401094" y="213.742696" transform="rotate(-0 41.401094 213.742696)">1.72</text>
     </g>
    </g>
    <g id="ytick_4">
     <g id="line2d_11">
      <path d="M 48.401094 174.296391 
L 634.011094 174.296391 
" clip-path="url(#pb0ff9eeac3)" style="fill: none; stroke: #d0d0d0; stroke-opacity: 0.65; stroke-width: 0.6; stroke-linecap: round"/>
     </g>
     <g id="line2d_12">
      <g>
       <use xlink:href="#mcb048820ec" x="48.401094" y="174.296391" style="fill: #4a4a4a; stroke: #4a4a4a; stroke-width: 0.8"/>
      </g>
     </g>
     <g id="text_9">
      <text style="font-size: 9px; font-family: 'DejaVu Sans'; text-anchor: end" x="41.401094" y="177.715688" transform="rotate(-0 41.401094 177.715688)">1.74</text>
     </g>
    </g>
    <g id="ytick_5">
     <g id="line2d_13">
      <path d="M 48.401094 138.269384 
L 634.011094 138.269384 
" clip-path="url(#pb0ff9eeac3)" style="fill: none; stroke: #d0d0d0; stroke-opacity: 0.65; stroke-width: 0.6; stroke-linecap: round"/>
     </g>
     <g id="line2d_14">
      <g>
       <use xlink:href="#mcb048820ec" x="48.401094" y="138.269384" style="fill: #4a4a4a; stroke: #4a4a4a; stroke-width: 0.8"/>
      </g>
     </g>
     <g id="text_10">
      <text style="font-size: 9px; font-family: 'DejaVu Sans'; text-anchor: end" x="41.401094" y="141.688681" transform="rotate(-0 41.401094 141.688681)">1.76</text>
     </g>
    </g>
    <g id="ytick_6">
     <g id="line2d_15">
      <path d="M 48.401094 102.242377 
L 634.011094 102.242377 
" clip-path="url(#pb0ff9eeac3)" style="fill: none; stroke: #d0d0d0; stroke-opacity: 0.65; stroke-width: 0.6; stroke-linecap: round"/>
     </g>
     <g id="line2d_16">
      <g>
       <use xlink:href="#mcb048820ec" x="48.401094" y="102.242377" style="fill: #4a4a4a; stroke: #4a4a4a; stroke-width: 0.8"/>
      </g>
     </g>
     <g id="text_11">
      <text style="font-size: 9px; font-family: 'DejaVu Sans'; text-anchor: end" x="41.401094" y="105.661673" transform="rotate(-0 41.401094 105.661673)">1.78</text>
     </g>
    </g>
    <g id="ytick_7">
     <g id="line2d_17">
      <path d="M 48.401094 66.215369 
L 634.011094 66.215369 
" clip-path="url(#pb0ff9eeac3)" style="fill: none; stroke: #d0d0d0; stroke-opacity: 0.65; stroke-width: 0.6; stroke-linecap: round"/>
     </g>
     <g id="line2d_18">
      <g>
       <use xlink:href="#mcb048820ec" x="48.401094" y="66.215369" style="fill: #4a4a4a; stroke: #4a4a4a; stroke-width: 0.8"/>
      </g>
     </g>
     <g id="text_12">
      <text style="font-size: 9px; font-family: 'DejaVu Sans'; text-anchor: end" x="41.401094" y="69.634666" transform="rotate(-0 41.401094 69.634666)">1.80</text>
     </g>
    </g>
    <g id="ytick_8">
     <g id="line2d_19">
      <path d="M 48.401094 30.188362 
L 634.011094 30.188362 
" clip-path="url(#pb0ff9eeac3)" style="fill: none; stroke: #d0d0d0; stroke-opacity: 0.65; stroke-width: 0.6; stroke-linecap: round"/>
     </g>
     <g id="line2d_20">
      <g>
       <use xlink:href="#mcb048820ec" x="48.401094" y="30.188362" style="fill: #4a4a4a; stroke: #4a4a4a; stroke-width: 0.8"/>
      </g>
     </g>
     <g id="text_13">
      <text style="font-size: 9px; font-family: 'DejaVu Sans'; text-anchor: end" x="41.401094" y="33.607659" transform="rotate(-0 41.401094 33.607659)">1.82</text>
     </g>
    </g>
    <g id="text_14">
     <text style="font-size: 10.5px; font-family: 'DejaVu Sans'; text-anchor: middle" x="15.178359" y="168.398281" transform="rotate(-90 15.178359 168.398281)">Validation Loss</text>
    </g>
   </g>
   <g id="line2d_21">
    <path d="M 62.344189 112.159444 
L 117.022994 92.987878 
L 171.701799 196.57176 
L 226.380604 242.462065 
L 281.059408 260.411989 
L 335.738213 271.500829 
L 390.417018 275.745334 
L 445.095823 290.764948 
L 499.774628 276.129715 
L 554.453433 273.995866 
L 609.132238 281.357934 
L 620.067999 282.173937 
" clip-path="url(#pb0ff9eeac3)" style="fill: none; stroke: #0072b2; stroke-width: 2.2; stroke-linecap: round"/>
    <defs>
     <path id="med93f79f4c" d="M 0 2.4 
C 0.636487 2.4 1.246992 2.147121 1.697056 1.697056 
C 2.147121 1.246992 2.4 0.636487 2.4 0 
C 2.4 -0.636487 2.147121 -1.246992 1.697056 -1.697056 
C 1.246992 -2.147121 0.636487 -2.4 0 -2.4 
C -0.636487 -2.4 -1.246992 -2.147121 -1.697056 -1.697056 
C -2.147121 -1.246992 -2.4 -0.636487 -2.4 0 
C -2.4 0.636487 -2.147121 1.246992 -1.697056 1.697056 
C -1.246992 2.147121 -0.636487 2.4 0 2.4 
z
" style="stroke: #0072b2; stroke-width: 1.1"/>
    </defs>
    <g clip-path="url(#pb0ff9eeac3)">
     <use xlink:href="#med93f79f4c" x="62.344189" y="112.159444" style="fill: #ffffff; stroke: #0072b2; stroke-width: 1.1"/>
     <use xlink:href="#med93f79f4c" x="117.022994" y="92.987878" style="fill: #ffffff; stroke: #0072b2; stroke-width: 1.1"/>
     <use xlink:href="#med93f79f4c" x="171.701799" y="196.57176" style="fill: #ffffff; stroke: #0072b2; stroke-width: 1.1"/>
     <use xlink:href="#med93f79f4c" x="226.380604" y="242.462065" style="fill: #ffffff; stroke: #0072b2; stroke-width: 1.1"/>
     <use xlink:href="#med93f79f4c" x="281.059408" y="260.411989" style="fill: #ffffff; stroke: #0072b2; stroke-width: 1.1"/>
     <use xlink:href="#med93f79f4c" x="335.738213" y="271.500829" style="fill: #ffffff; stroke: #0072b2; stroke-width: 1.1"/>
     <use xlink:href="#med93f79f4c" x="390.417018" y="275.745334" style="fill: #ffffff; stroke: #0072b2; stroke-width: 1.1"/>
     <use xlink:href="#med93f79f4c" x="445.095823" y="290.764948" style="fill: #ffffff; stroke: #0072b2; stroke-width: 1.1"/>
     <use xlink:href="#med93f79f4c" x="499.774628" y="276.129715" style="fill: #ffffff; stroke: #0072b2; stroke-width: 1.1"/>
     <use xlink:href="#med93f79f4c" x="554.453433" y="273.995866" style="fill: #ffffff; stroke: #0072b2; stroke-width: 1.1"/>
     <use xlink:href="#med93f79f4c" x="609.132238" y="281.357934" style="fill: #ffffff; stroke: #0072b2; stroke-width: 1.1"/>
     <use xlink:href="#med93f79f4c" x="620.067999" y="282.173937" style="fill: #ffffff; stroke: #0072b2; stroke-width: 1.1"/>
    </g>
   </g>
   <g id="line2d_22">
    <path d="M 62.344189 46.031615 
L 117.022994 151.880121 
L 171.701799 220.907339 
L 226.380604 246.659543 
L 281.059408 203.360692 
L 335.738213 181.210284 
L 390.417018 252.074368 
L 445.095823 258.68013 
L 499.774628 257.593771 
L 554.453433 259.028864 
L 609.132238 260.760938 
L 620.067999 261.300144 
" clip-path="url(#pb0ff9eeac3)" style="fill: none; stroke: #e69f00; stroke-width: 2.2; stroke-linecap: round"/>
    <defs>
     <path id="m60f0353963" d="M 0 2.4 
C 0.636487 2.4 1.246992 2.147121 1.697056 1.697056 
C 2.147121 1.246992 2.4 0.636487 2.4 0 
C 2.4 -0.636487 2.147121 -1.246992 1.697056 -1.697056 
C 1.246992 -2.147121 0.636487 -2.4 0 -2.4 
C -0.636487 -2.4 -1.246992 -2.147121 -1.697056 -1.697056 
C -2.147121 -1.246992 -2.4 -0.636487 -2.4 0 
C -2.4 0.636487 -2.147121 1.246992 -1.697056 1.697056 
C -1.246992 2.147121 -0.636487 2.4 0 2.4 
z
" style="stroke: #e69f00; stroke-width: 1.1"/>
    </defs>
    <g clip-path="url(#pb0ff9eeac3)">
     <use xlink:href="#m60f0353963" x="62.344189" y="46.031615" style="fill: #ffffff; stroke: #e69f00; stroke-width: 1.1"/>
     <use xlink:href="#m60f0353963" x="117.022994" y="151.880121" style="fill: #ffffff; stroke: #e69f00; stroke-width: 1.1"/>
     <use xlink:href="#m60f0353963" x="171.701799" y="220.907339" style="fill: #ffffff; stroke: #e69f00; stroke-width: 1.1"/>
     <use xlink:href="#m60f0353963" x="226.380604" y="246.659543" style="fill: #ffffff; stroke: #e69f00; stroke-width: 1.1"/>
     <use xlink:href="#m60f0353963" x="281.059408" y="203.360692" style="fill: #ffffff; stroke: #e69f00; stroke-width: 1.1"/>
     <use xlink:href="#m60f0353963" x="335.738213" y="181.210284" style="fill: #ffffff; stroke: #e69f00; stroke-width: 1.1"/>
     <use xlink:href="#m60f0353963" x="390.417018" y="252.074368" style="fill: #ffffff; stroke: #e69f00; stroke-width: 1.1"/>
     <use xlink:href="#m60f0353963" x="445.095823" y="258.68013" style="fill: #ffffff; stroke: #e69f00; stroke-width: 1.1"/>
     <use xlink:href="#m60f0353963" x="499.774628" y="257.593771" style="fill: #ffffff; stroke: #e69f00; stroke-width: 1.1"/>
     <use xlink:href="#m60f0353963" x="554.453433" y="259.028864" style="fill: #ffffff; stroke: #e69f00; stroke-width: 1.1"/>
     <use xlink:href="#m60f0353963" x="609.132238" y="260.760938" style="fill: #ffffff; stroke: #e69f00; stroke-width: 1.1"/>
     <use xlink:href="#m60f0353963" x="620.067999" y="261.300144" style="fill: #ffffff; stroke: #e69f00; stroke-width: 1.1"/>
    </g>
   </g>
   <g id="line2d_23">
    <path d="M 62.344189 106.011075 
L 117.022994 124.869125 
L 171.701799 177.579714 
L 226.380604 246.936769 
L 281.059408 198.121737 
L 335.738213 254.518083 
L 390.417018 267.250526 
L 445.095823 280.317529 
L 499.774628 252.544859 
L 554.453433 272.270449 
L 609.132238 269.962019 
L 620.067999 270.720687 
" clip-path="url(#pb0ff9eeac3)" style="fill: none; stroke: #009e73; stroke-width: 2.2; stroke-linecap: round"/>
    <defs>
     <path id="m6974dce8f5" d="M 0 2.4 
C 0.636487 2.4 1.246992 2.147121 1.697056 1.697056 
C 2.147121 1.246992 2.4 0.636487 2.4 0 
C 2.4 -0.636487 2.147121 -1.246992 1.697056 -1.697056 
C 1.246992 -2.147121 0.636487 -2.4 0 -2.4 
C -0.636487 -2.4 -1.246992 -2.147121 -1.697056 -1.697056 
C -2.147121 -1.246992 -2.4 -0.636487 -2.4 0 
C -2.4 0.636487 -2.147121 1.246992 -1.697056 1.697056 
C -1.246992 2.147121 -0.636487 2.4 0 2.4 
z
" style="stroke: #009e73; stroke-width: 1.1"/>
    </defs>
    <g clip-path="url(#pb0ff9eeac3)">
     <use xlink:href="#m6974dce8f5" x="62.344189" y="106.011075" style="fill: #ffffff; stroke: #009e73; stroke-width: 1.1"/>
     <use xlink:href="#m6974dce8f5" x="117.022994" y="124.869125" style="fill: #ffffff; stroke: #009e73; stroke-width: 1.1"/>
     <use xlink:href="#m6974dce8f5" x="171.701799" y="177.579714" style="fill: #ffffff; stroke: #009e73; stroke-width: 1.1"/>
     <use xlink:href="#m6974dce8f5" x="226.380604" y="246.936769" style="fill: #ffffff; stroke: #009e73; stroke-width: 1.1"/>
     <use xlink:href="#m6974dce8f5" x="281.059408" y="198.121737" style="fill: #ffffff; stroke: #009e73; stroke-width: 1.1"/>
     <use xlink:href="#m6974dce8f5" x="335.738213" y="254.518083" style="fill: #ffffff; stroke: #009e73; stroke-width: 1.1"/>
     <use xlink:href="#m6974dce8f5" x="390.417018" y="267.250526" style="fill: #ffffff; stroke: #009e73; stroke-width: 1.1"/>
     <use xlink:href="#m6974dce8f5" x="445.095823" y="280.317529" style="fill: #ffffff; stroke: #009e73; stroke-width: 1.1"/>
     <use xlink:href="#m6974dce8f5" x="499.774628" y="252.544859" style="fill: #ffffff; stroke: #009e73; stroke-width: 1.1"/>
     <use xlink:href="#m6974dce8f5" x="554.453433" y="272.270449" style="fill: #ffffff; stroke: #009e73; stroke-width: 1.1"/>
     <use xlink:href="#m6974dce8f5" x="609.132238" y="269.962019" style="fill: #ffffff; stroke: #009e73; stroke-width: 1.1"/>
     <use xlink:href="#m6974dce8f5" x="620.067999" y="270.720687" style="fill: #ffffff; stroke: #009e73; stroke-width: 1.1"/>
    </g>
   </g>
   <g id="line2d_24">
    <path d="M 62.344189 124.447165 
L 117.022994 162.243362 
L 171.701799 228.052092 
L 226.380604 262.024025 
L 281.059408 261.628478 
L 335.738213 259.460486 
L 390.417018 273.254592 
L 445.095823 281.565155 
L 499.774628 272.611882 
L 554.453433 278.47508 
L 609.132238 268.660493 
L 620.067999 268.968642 
" clip-path="url(#pb0ff9eeac3)" style="fill: none; stroke: #cc79a7; stroke-width: 2.2; stroke-linecap: round"/>
    <defs>
     <path id="me43fc32e60" d="M 0 2.4 
C 0.636487 2.4 1.246992 2.147121 1.697056 1.697056 
C 2.147121 1.246992 2.4 0.636487 2.4 0 
C 2.4 -0.636487 2.147121 -1.246992 1.697056 -1.697056 
C 1.246992 -2.147121 0.636487 -2.4 0 -2.4 
C -0.636487 -2.4 -1.246992 -2.147121 -1.697056 -1.697056 
C -2.147121 -1.246992 -2.4 -0.636487 -2.4 0 
C -2.4 0.636487 -2.147121 1.246992 -1.697056 1.697056 
C -1.246992 2.147121 -0.636487 2.4 0 2.4 
z
" style="stroke: #cc79a7; stroke-width: 1.1"/>
    </defs>
    <g clip-path="url(#pb0ff9eeac3)">
     <use xlink:href="#me43fc32e60" x="62.344189" y="124.447165" style="fill: #ffffff; stroke: #cc79a7; stroke-width: 1.1"/>
     <use xlink:href="#me43fc32e60" x="117.022994" y="162.243362" style="fill: #ffffff; stroke: #cc79a7; stroke-width: 1.1"/>
     <use xlink:href="#me43fc32e60" x="171.701799" y="228.052092" style="fill: #ffffff; stroke: #cc79a7; stroke-width: 1.1"/>
     <use xlink:href="#me43fc32e60" x="226.380604" y="262.024025" style="fill: #ffffff; stroke: #cc79a7; stroke-width: 1.1"/>
     <use xlink:href="#me43fc32e60" x="281.059408" y="261.628478" style="fill: #ffffff; stroke: #cc79a7; stroke-width: 1.1"/>
     <use xlink:href="#me43fc32e60" x="335.738213" y="259.460486" style="fill: #ffffff; stroke: #cc79a7; stroke-width: 1.1"/>
     <use xlink:href="#me43fc32e60" x="390.417018" y="273.254592" style="fill: #ffffff; stroke: #cc79a7; stroke-width: 1.1"/>
     <use xlink:href="#me43fc32e60" x="445.095823" y="281.565155" style="fill: #ffffff; stroke: #cc79a7; stroke-width: 1.1"/>
     <use xlink:href="#me43fc32e60" x="499.774628" y="272.611882" style="fill: #ffffff; stroke: #cc79a7; stroke-width: 1.1"/>
     <use xlink:href="#me43fc32e60" x="554.453433" y="278.47508" style="fill: #ffffff; stroke: #cc79a7; stroke-width: 1.1"/>
     <use xlink:href="#me43fc32e60" x="609.132238" y="268.660493" style="fill: #ffffff; stroke: #cc79a7; stroke-width: 1.1"/>
     <use xlink:href="#me43fc32e60" x="620.067999" y="268.968642" style="fill: #ffffff; stroke: #cc79a7; stroke-width: 1.1"/>
    </g>
   </g>
   <g id="patch_3">
    <path d="M 48.401094 315.238281 
L 48.401094 21.558281 
" style="fill: none; stroke: #4a4a4a; stroke-width: 0.8; stroke-linejoin: miter; stroke-linecap: square"/>
   </g>
   <g id="patch_4">
    <path d="M 48.401094 315.238281 
L 634.011094 315.238281 
" style="fill: none; stroke: #4a4a4a; stroke-width: 0.8; stroke-linejoin: miter; stroke-linecap: square"/>
   </g>
   <g id="text_15">
    <text style="font-weight: 600; font-size: 11px; font-family: 'DejaVu Sans'; text-anchor: middle" x="341.206094" y="15.558281" transform="rotate(-0 341.206094 15.558281)">Validation Loss</text>
   </g>
   <g id="PathCollection_1">
    <defs>
     <path id="m22125b9164" d="M 0 -5.123475 
L -1.150292 -1.583241 
L -4.872715 -1.583241 
L -1.861211 0.604744 
L -3.011503 4.144979 
L -0 1.956993 
L 3.011503 4.144979 
L 1.861211 0.604744 
L 4.872715 -1.583241 
L 1.150292 -1.583241 
z
" style="stroke: #ffffff; stroke-width: 0.7"/>
    </defs>
    <g clip-path="url(#pb0ff9eeac3)">
     <use xlink:href="#m22125b9164" x="445.095823" y="290.764948" style="fill: #0072b2; stroke: #ffffff; stroke-width: 0.7"/>
    </g>
   </g>
   <g id="PathCollection_2">
    <defs>
     <path id="m281943a0f8" d="M 0 -5.123475 
L -1.150292 -1.583241 
L -4.872715 -1.583241 
L -1.861211 0.604744 
L -3.011503 4.144979 
L -0 1.956993 
L 3.011503 4.144979 
L 1.861211 0.604744 
L 4.872715 -1.583241 
L 1.150292 -1.583241 
z
" style="stroke: #ffffff; stroke-width: 0.7"/>
    </defs>
    <g clip-path="url(#pb0ff9eeac3)">
     <use xlink:href="#m281943a0f8" x="620.067999" y="261.300144" style="fill: #e69f00; stroke: #ffffff; stroke-width: 0.7"/>
    </g>
   </g>
   <g id="PathCollection_3">
    <defs>
     <path id="m61541ef237" d="M 0 -5.123475 
L -1.150292 -1.583241 
L -4.872715 -1.583241 
L -1.861211 0.604744 
L -3.011503 4.144979 
L -0 1.956993 
L 3.011503 4.144979 
L 1.861211 0.604744 
L 4.872715 -1.583241 
L 1.150292 -1.583241 
z
" style="stroke: #ffffff; stroke-width: 0.7"/>
    </defs>
    <g clip-path="url(#pb0ff9eeac3)">
     <use xlink:href="#m61541ef237" x="445.095823" y="280.317529" style="fill: #009e73; stroke: #ffffff; stroke-width: 0.7"/>
    </g>
   </g>
   <g id="PathCollection_4">
    <defs>
     <path id="mb50790989c" d="M 0 -5.123475 
L -1.150292 -1.583241 
L -4.872715 -1.583241 
L -1.861211 0.604744 
L -3.011503 4.144979 
L -0 1.956993 
L 3.011503 4.144979 
L 1.861211 0.604744 
L 4.872715 -1.583241 
L 1.150292 -1.583241 
z
" style="stroke: #ffffff; stroke-width: 0.7"/>
    </defs>
    <g clip-path="url(#pb0ff9eeac3)">
     <use xlink:href="#mb50790989c" x="445.095823" y="281.565155" style="fill: #cc79a7; stroke: #ffffff; stroke-width: 0.7"/>
    </g>
   </g>
   <g id="legend_1">
    <g id="patch_5">
     <path d="M 533.783437 81.599531 
L 627.711094 81.599531 
Q 629.511094 81.599531 629.511094 79.799531 
L 629.511094 27.858281 
Q 629.511094 26.058281 627.711094 26.058281 
L 533.783437 26.058281 
Q 531.983438 26.058281 531.983438 27.858281 
L 531.983438 79.799531 
Q 531.983438 81.599531 533.783437 81.599531 
z
" style="fill: #ffffff; opacity: 0.94; stroke: #d6d6d6; stroke-linejoin: miter"/>
    </g>
    <g id="line2d_25">
     <path d="M 535.583438 33.346875 
L 544.583438 33.346875 
L 553.583438 33.346875 
" style="fill: none; stroke: #0072b2; stroke-width: 2.2; stroke-linecap: round"/>
     <g>
      <use xlink:href="#med93f79f4c" x="544.583438" y="33.346875" style="fill: #ffffff; stroke: #0072b2; stroke-width: 1.1"/>
     </g>
    </g>
    <g id="text_16">
     <text style="font-size: 9px; font-family: 'DejaVu Sans'; text-anchor: start" x="560.783438" y="36.496875" transform="rotate(-0 560.783438 36.496875)">Full (T+V+M)</text>
    </g>
    <g id="line2d_26">
     <path d="M 535.583438 46.557187 
L 544.583438 46.557187 
L 553.583438 46.557187 
" style="fill: none; stroke: #e69f00; stroke-width: 2.2; stroke-linecap: round"/>
     <g>
      <use xlink:href="#m60f0353963" x="544.583438" y="46.557187" style="fill: #ffffff; stroke: #e69f00; stroke-width: 1.1"/>
     </g>
    </g>
    <g id="text_17">
     <text style="font-size: 9px; font-family: 'DejaVu Sans'; text-anchor: start" x="560.783438" y="49.707187" transform="rotate(-0 560.783438 49.707187)">Target only (T)</text>
    </g>
    <g id="line2d_27">
     <path d="M 535.583438 59.7675 
L 544.583438 59.7675 
L 553.583438 59.7675 
" style="fill: none; stroke: #009e73; stroke-width: 2.2; stroke-linecap: round"/>
     <g>
      <use xlink:href="#m6974dce8f5" x="544.583438" y="59.7675" style="fill: #ffffff; stroke: #009e73; stroke-width: 1.1"/>
     </g>
    </g>
    <g id="text_18">
     <text style="font-size: 9px; font-family: 'DejaVu Sans'; text-anchor: start" x="560.783438" y="62.9175" transform="rotate(-0 560.783438 62.9175)">Visual only (V)</text>
    </g>
    <g id="line2d_28">
     <path d="M 535.583438 72.977812 
L 544.583438 72.977812 
L 553.583438 72.977812 
" style="fill: none; stroke: #cc79a7; stroke-width: 2.2; stroke-linecap: round"/>
     <g>
      <use xlink:href="#me43fc32e60" x="544.583438" y="72.977812" style="fill: #ffffff; stroke: #cc79a7; stroke-width: 1.1"/>
     </g>
    </g>
    <g id="text_19">
     <text style="font-size: 9px; font-family: 'DejaVu Sans'; text-anchor: start" x="560.783438" y="76.127813" transform="rotate(-0 560.783438 76.127813)">No condition</text>
    </g>
   </g>
  </g>
 </g>
 <defs>
  <clipPath id="pb0ff9eeac3">
   <rect x="48.401094" y="21.558281" width="585.61" height="293.68"/>
  </clipPath>
 </defs>
</svg>
