<?xml version="1.0" encoding="utf-8" standalone="no"?>
<!DOCTYPE svg PUBLIC "-//W3C//DTD SVG 1.1//EN"
  "http://www.w3.org/Graphics/SVG/1.1/DTD/svg11.dtd">
<svg xmlns:xlink="http://www.w3.org/1999/xlink" width="641.154844pt" height="352.310625pt" viewBox="0 0 641.154844 352.310625" xmlns="http://www.w3.org/2000/svg" version="1.1">
 <metadata>
  <rdf:RDF xmlns:dc="http://purl.org/dc/elements/1.1/" xmlns:cc="http://creativecommons.org/ns#" xmlns:rdf="http://www.w3.org/1999/02/22-rdf-syntax-ns#">
   <cc:Work>
    <dc:type rdf:resource="http://purl.org/dc/dcmitype/StillImage"/>
    <dc:date>2026-05-20T11:52:08.068437</dc:date>
    <dc:format>image/svg+xml</dc:format>
    <dc:creator>
     <cc:Agent>
      <dc:title>Matplotlib v3.10.8, https://matplotlib.org/</dc:title>
     </cc:Agent>
    </dc:creator>
   </cc:Work>
  </rdf:RDF>
 </metadata>
 <defs>
  <style type="text/css">*{stroke-linejoin: round; stroke-linecap: butt}</style>
 </defs>
 <g id="figure_1">
  <g id="patch_1">
   <path d="M 0 352.310625 
L 641.154844 352.310625 
L 641.154844 0 
L 0 0 
z
" style="fill: #ffffff"/>
  </g>
  <g id="axes_1">
   <g id="patch_2">
    <path d="M 42.674844 315.238281 
L 633.954844 315.238281 
L 633.954844 21.558281 
L 42.674844 21.558281 
z
" style="fill: #ffffff"/>
   </g>
   <g id="matplotlib.axis_1">
    <g id="xtick_1">
     <g id="line2d_1">
      <defs>
       <path id="mddd8b69eff" d="M 0 0 
L 0 3.5 
" style="stroke: #4a4a4a; stroke-width: 0.8"/>
      </defs>
      <g>
       <use xlink:href="#mddd8b69eff" x="139.565264" y="315.238281" style="fill: #4a4a4a; stroke: #4a4a4a; stroke-width: 0.8"/>
      </g>
     </g>
     <g id="text_1">
      <text style="font-size: 9px; font-family: 'DejaVu Sans'; text-anchor: middle" x="139.565264" y="329.076875" transform="rotate(-0 139.565264 329.076875)">500</text>
     </g>
    </g>
    <g id="xtick_2">
     <g id="line2d_2">
      <g>
       <use xlink:href="#mddd8b69eff" x="277.585805" y="315.238281" style="fill: #4a4a4a; stroke: #4a4a4a; stroke-width: 0.8"/>
      </g>
     </g>
     <g id="text_2">
      <text style="font-size: 9px; font-family: 'DejaVu Sans'; text-anchor: middle" x="277.585805" y="329.076875" transform="rotate(-0 277.585805 329.076875)">1k</text>
     </g>
    </g>
    <g id="xtick_3">
     <g id="line2d_3">
      <g>
       <use xlink:href="#mddd8b69eff" x="415.606347" y="315.238281" style="fill: #4a4a4a; stroke: #4a4a4a; stroke-width: 0.8"/>
      </g>
     </g>
     <g id="text_3">
      <text style="font-size: 9px; font-family: 'DejaVu Sans'; text-anchor: middle" x="415.606347" y="329.076875" transform="rotate(-0 415.606347 329.076875)">1.5k</text>
     </g>
    </g>
    <g id="xtick_4">
     <g id="line2d_4">
      <g>
       <use xlink:href="#mddd8b69eff" x="553.626889" y="315.238281" style="fill: #4a4a4a; stroke: #4a4a4a; stroke-width: 0.8"/>
      </g>
     </g>
     <g id="text_4">
      <text style="font-size: 9px; font-family: 'DejaVu Sans'; text-anchor: middle" x="553.626889" y="329.076875" transform="rotate(-0 553.626889 329.076875)">2k</text>
     </g>
    </g>
    <g id="text_5">
     <text style="font-size: 10.5px; font-family: 'DejaVu Sans'; text-anchor: middle" x="338.314844" y="342.926953" transform="rotate(-0 338.314844 342.926953)">Training step</text>
    </g>
   </g>
   <g id="matplotlib.axis_2">
    <g id="ytick_1">
     <g id="line2d_5">
      <path d="M 42.674844 315.238281 
L 633.954844 315.238281 
" clip-path="url(#p1ae09ee682)" style="fill: none; stroke: #d0d0d0; stroke-opacity: 0.65; stroke-width: 0.6; stroke-linecap: round"/>
     </g>
     <g id="line2d_6">
      <defs>
       <path id="ma23503e7d0" d="M 0 0 
L -3.5 0 
" style="stroke: #4a4a4a; stroke-width: 0.8"/>
      </defs>
      <g>
       <use xlink:href="#ma23503e7d0" x="42.674844" y="315.238281" style="fill: #4a4a4a; stroke: #4a4a4a; stroke-width: 0.8"/>
      </g>
     </g>
     <g id="text_6">
      <text style="font-size: 9px; font-family: 'DejaVu Sans'; text-anchor: end" x="35.674844" y="318.657578" transform="rotate(-0 35.674844 318.657578)">0.0</text>
     </g>
    </g>
    <g id="ytick_2">
     <g id="line2d_7">
      <path d="M 42.674844 259.299234 
L 633.954844 259.299234 
" clip-path="url(#p1ae09ee682)" style="fill: none; stroke: #d0d0d0; stroke-opacity: 0.65; stroke-width: 0.6; stroke-linecap: round"/>
     </g>
     <g id="line2d_8">
      <g>
       <use xlink:href="#ma23503e7d0" x="42.674844" y="259.299234" style="fill: #4a4a4a; stroke: #4a4a4a; stroke-width: 0.8"/>
      </g>
     </g>
     <g id="text_7">
      <text style="font-size: 9px; font-family: 'DejaVu Sans'; text-anchor: end" x="35.674844" y="262.718531" transform="rotate(-0 35.674844 262.718531)">0.2</text>
     </g>
    </g>
    <g id="ytick_3">
     <g id="line2d_9">
      <path d="M 42.674844 203.360186 
L 633.954844 203.360186 
" clip-path="url(#p1ae09ee682)" style="fill: none; stroke: #d0d0d0; stroke-opacity: 0.65; stroke-width: 0.6; stroke-linecap: round"/>
     </g>
     <g id="line2d_10">
      <g>
       <use xlink:href="#ma23503e7d0" x="42.674844" y="203.360186" style="fill: #4a4a4a; stroke: #4a4a4a; stroke-width: 0.8"/>
      </g>
     </g>
     <g id="text_8">
      <text style="font-size: 9px; font-family: 'DejaVu Sans'; text-anchor: end" x="35.674844" y="206.779483" transform="rotate(-0 35.674844 206.779483)">0.4</text>
     </g>
    </g>
    <g id="ytick_4">
     <g id="line2d_11">
      <path d="M 42.674844 147.421138 
L 633.954844 147.421138 
" clip-path="url(#p1ae09ee682)" style="fill: none; stroke: #d0d0d0; stroke-opacity: 0.65; stroke-width: 0.6; stroke-linecap: round"/>
     </g>
     <g id="line2d_12">
      <g>
       <use xlink:href="#ma23503e7d0" x="42.674844" y="147.421138" style="fill: #4a4a4a; stroke: #4a4a4a; stroke-width: 0.8"/>
      </g>
     </g>
     <g id="text_9">
      <text style="font-size: 9px; font-family: 'DejaVu Sans'; text-anchor: end" x="35.674844" y="150.840435" transform="rotate(-0 35.674844 150.840435)">0.6</text>
     </g>
    </g>
    <g id="ytick_5">
     <g id="line2d_13">
      <path d="M 42.674844 91.482091 
L 633.954844 91.482091 
" clip-path="url(#p1ae09ee682)" style="fill: none; stroke: #d0d0d0; stroke-opacity: 0.65; stroke-width: 0.6; stroke-linecap: round"/>
     </g>
     <g id="line2d_14">
      <g>
       <use xlink:href="#ma23503e7d0" x="42.674844" y="91.482091" style="fill: #4a4a4a; stroke: #4a4a4a; stroke-width: 0.8"/>
      </g>
     </g>
     <g id="text_10">
      <text style="font-size: 9px; font-family: 'DejaVu Sans'; text-anchor: end" x="35.674844" y="94.901388" transform="rotate(-0 35.674844 94.901388)">0.8</text>
     </g>
    </g>
    <g id="ytick_6">
     <g id="line2d_15">
      <path d="M 42.674844 35.543043 
L 633.954844 35.543043 
" clip-path="url(#p1ae09ee682)" style="fill: none; stroke: #d0d0d0; stroke-opacity: 0.65; stroke-width: 0.6; stroke-linecap: round"/>
     </g>
     <g id="line2d_16">
      <g>
       <use xlink:href="#ma23503e7d0" x="42.674844" y="35.543043" style="fill: #4a4a4a; stroke: #4a4a4a; stroke-width: 0.8"/>
      </g>
     </g>
     <g id="text_11">
      <text style="font-size: 9px; font-family: 'DejaVu Sans'; text-anchor: end" x="35.674844" y="38.96234" transform="rotate(-0 35.674844 38.96234)">1.0</text>
     </g>
    </g>
    <g id="text_12">
     <text style="font-size: 10.5px; font-family: 'DejaVu Sans'; text-anchor: middle" x="15.178359" y="168.398281" transform="rotate(-90 15.178359 168.398281)">High Source-Copy Rate (↓ better)</text>
    </g>
   </g>
   <g id="line2d_17">
    <path d="M 56.752939 289.254594 
L 111.961156 288.191752 
L 167.169372 286.122007 
L 222.377589 285.087135 
L 277.585805 294.456925 
L 332.794022 291.324338 
L 388.002239 296.52667 
L 443.210455 296.52667 
L 498.418672 297.561542 
L 553.626889 296.52667 
L 608.835105 296.52667 
L 619.876749 296.52667 
" clip-path="url(#p1ae09ee682)" style="fill: none; stroke: #0072b2; stroke-width: 2.2; stroke-linecap: round"/>
    <defs>
     <path id="mdbfe342edd" d="M 0 2.4 
C 0.636487 2.4 1.246992 2.147121 1.697056 1.697056 
C 2.147121 1.246992 2.4 0.636487 2.4 0 
C 2.4 -0.636487 2.147121 -1.246992 1.697056 -1.697056 
C 1.246992 -2.147121 0.636487 -2.4 0 -2.4 
C -0.636487 -2.4 -1.246992 -2.147121 -1.697056 -1.697056 
C -2.147121 -1.246992 -2.4 -0.636487 -2.4 0 
C -2.4 0.636487 -2.147121 1.246992 -1.697056 1.697056 
C -1.246992 2.147121 -0.636487 2.4 0 2.4 
z
" style="stroke: #0072b2; stroke-width: 1.1"/>
    </defs>
    <g clip-path="url(#p1ae09ee682)">
     <use xlink:href="#mdbfe342edd" x="56.752939" y="289.254594" style="fill: #ffffff; stroke: #0072b2; stroke-width: 1.1"/>
     <use xlink:href="#mdbfe342edd" x="111.961156" y="288.191752" style="fill: #ffffff; stroke: #0072b2; stroke-width: 1.1"/>
     <use xlink:href="#mdbfe342edd" x="167.169372" y="286.122007" style="fill: #ffffff; stroke: #0072b2; stroke-width: 1.1"/>
     <use xlink:href="#mdbfe342edd" x="222.377589" y="285.087135" style="fill: #ffffff; stroke: #0072b2; stroke-width: 1.1"/>
     <use xlink:href="#mdbfe342edd" x="277.585805" y="294.456925" style="fill: #ffffff; stroke: #0072b2; stroke-width: 1.1"/>
     <use xlink:href="#mdbfe342edd" x="332.794022" y="291.324338" style="fill: #ffffff; stroke: #0072b2; stroke-width: 1.1"/>
     <use xlink:href="#mdbfe342edd" x="388.002239" y="296.52667" style="fill: #ffffff; stroke: #0072b2; stroke-width: 1.1"/>
     <use xlink:href="#mdbfe342edd" x="443.210455" y="296.52667" style="fill: #ffffff; stroke: #0072b2; stroke-width: 1.1"/>
     <use xlink:href="#mdbfe342edd" x="498.418672" y="297.561542" style="fill: #ffffff; stroke: #0072b2; stroke-width: 1.1"/>
     <use xlink:href="#mdbfe342edd" x="553.626889" y="296.52667" style="fill: #ffffff; stroke: #0072b2; stroke-width: 1.1"/>
     <use xlink:href="#mdbfe342edd" x="608.835105" y="296.52667" style="fill: #ffffff; stroke: #0072b2; stroke-width: 1.1"/>
     <use xlink:href="#mdbfe342edd" x="619.876749" y="296.52667" style="fill: #ffffff; stroke: #0072b2; stroke-width: 1.1"/>
    </g>
   </g>
   <g id="line2d_18">
    <path d="M 56.752939 292.359211 
L 111.961156 292.359211 
L 167.169372 287.156879 
L 222.377589 287.156879 
L 277.585805 289.254594 
L 332.794022 293.394083 
L 388.002239 291.324338 
L 443.210455 297.561542 
L 498.418672 299.631287 
L 553.626889 297.561542 
L 608.835105 296.52667 
L 619.876749 295.491797 
" clip-path="url(#p1ae09ee682)" style="fill: none; stroke: #e69f00; stroke-width: 2.2; stroke-linecap: round"/>
    <defs>
     <path id="m6c781450d5" d="M 0 2.4 
C 0.636487 2.4 1.246992 2.147121 1.697056 1.697056 
C 2.147121 1.246992 2.4 0.636487 2.4 0 
C 2.4 -0.636487 2.147121 -1.246992 1.697056 -1.697056 
C 1.246992 -2.147121 0.636487 -2.4 0 -2.4 
C -0.636487 -2.4 -1.246992 -2.147121 -1.697056 -1.697056 
C -2.147121 -1.246992 -2.4 -0.636487 -2.4 0 
C -2.4 0.636487 -2.147121 1.246992 -1.697056 1.697056 
C -1.246992 2.147121 -0.636487 2.4 0 2.4 
z
" style="stroke: #e69f00; stroke-width: 1.1"/>
    </defs>
    <g clip-path="url(#p1ae09ee682)">
     <use xlink:href="#m6c781450d5" x="56.752939" y="292.359211" style="fill: #ffffff; stroke: #e69f00; stroke-width: 1.1"/>
     <use xlink:href="#m6c781450d5" x="111.961156" y="292.359211" style="fill: #ffffff; stroke: #e69f00; stroke-width: 1.1"/>
     <use xlink:href="#m6c781450d5" x="167.169372" y="287.156879" style="fill: #ffffff; stroke: #e69f00; stroke-width: 1.1"/>
     <use xlink:href="#m6c781450d5" x="222.377589" y="287.156879" style="fill: #ffffff; stroke: #e69f00; stroke-width: 1.1"/>
     <use xlink:href="#m6c781450d5" x="277.585805" y="289.254594" style="fill: #ffffff; stroke: #e69f00; stroke-width: 1.1"/>
     <use xlink:href="#m6c781450d5" x="332.794022" y="293.394083" style="fill: #ffffff; stroke: #e69f00; stroke-width: 1.1"/>
     <use xlink:href="#m6c781450d5" x="388.002239" y="291.324338" style="fill: #ffffff; stroke: #e69f00; stroke-width: 1.1"/>
     <use xlink:href="#m6c781450d5" x="443.210455" y="297.561542" style="fill: #ffffff; stroke: #e69f00; stroke-width: 1.1"/>
     <use xlink:href="#m6c781450d5" x="498.418672" y="299.631287" style="fill: #ffffff; stroke: #e69f00; stroke-width: 1.1"/>
     <use xlink:href="#m6c781450d5" x="553.626889" y="297.561542" style="fill: #ffffff; stroke: #e69f00; stroke-width: 1.1"/>
     <use xlink:href="#m6c781450d5" x="608.835105" y="296.52667" style="fill: #ffffff; stroke: #e69f00; stroke-width: 1.1"/>
     <use xlink:href="#m6c781450d5" x="619.876749" y="295.491797" style="fill: #ffffff; stroke: #e69f00; stroke-width: 1.1"/>
    </g>
   </g>
   <g id="line2d_19">
    <path d="M 56.752939 294.456925 
L 111.961156 291.324338 
L 167.169372 294.456925 
L 222.377589 295.491797 
L 277.585805 297.561542 
L 332.794022 297.561542 
L 388.002239 292.359211 
L 443.210455 294.456925 
L 498.418672 297.561542 
L 553.626889 295.491797 
L 608.835105 298.596415 
L 619.876749 298.596415 
" clip-path="url(#p1ae09ee682)" style="fill: none; stroke: #009e73; stroke-width: 2.2; stroke-linecap: round"/>
    <defs>
     <path id="me5e1cb2676" d="M 0 2.4 
C 0.636487 2.4 1.246992 2.147121 1.697056 1.697056 
C 2.147121 1.246992 2.4 0.636487 2.4 0 
C 2.4 -0.636487 2.147121 -1.246992 1.697056 -1.697056 
C 1.246992 -2.147121 0.636487 -2.4 0 -2.4 
C -0.636487 -2.4 -1.246992 -2.147121 -1.697056 -1.697056 
C -2.147121 -1.246992 -2.4 -0.636487 -2.4 0 
C -2.4 0.636487 -2.147121 1.246992 -1.697056 1.697056 
C -1.246992 2.147121 -0.636487 2.4 0 2.4 
z
" style="stroke: #009e73; stroke-width: 1.1"/>
    </defs>
    <g clip-path="url(#p1ae09ee682)">
     <use xlink:href="#me5e1cb2676" x="56.752939" y="294.456925" style="fill: #ffffff; stroke: #009e73; stroke-width: 1.1"/>
     <use xlink:href="#me5e1cb2676" x="111.961156" y="291.324338" style="fill: #ffffff; stroke: #009e73; stroke-width: 1.1"/>
     <use xlink:href="#me5e1cb2676" x="167.169372" y="294.456925" style="fill: #ffffff; stroke: #009e73; stroke-width: 1.1"/>
     <use xlink:href="#me5e1cb2676" x="222.377589" y="295.491797" style="fill: #ffffff; stroke: #009e73; stroke-width: 1.1"/>
     <use xlink:href="#me5e1cb2676" x="277.585805" y="297.561542" style="fill: #ffffff; stroke: #009e73; stroke-width: 1.1"/>
     <use xlink:href="#me5e1cb2676" x="332.794022" y="297.561542" style="fill: #ffffff; stroke: #009e73; stroke-width: 1.1"/>
     <use xlink:href="#me5e1cb2676" x="388.002239" y="292.359211" style="fill: #ffffff; stroke: #009e73; stroke-width: 1.1"/>
     <use xlink:href="#me5e1cb2676" x="443.210455" y="294.456925" style="fill: #ffffff; stroke: #009e73; stroke-width: 1.1"/>
     <use xlink:href="#me5e1cb2676" x="498.418672" y="297.561542" style="fill: #ffffff; stroke: #009e73; stroke-width: 1.1"/>
     <use xlink:href="#me5e1cb2676" x="553.626889" y="295.491797" style="fill: #ffffff; stroke: #009e73; stroke-width: 1.1"/>
     <use xlink:href="#me5e1cb2676" x="608.835105" y="298.596415" style="fill: #ffffff; stroke: #009e73; stroke-width: 1.1"/>
     <use xlink:href="#me5e1cb2676" x="619.876749" y="298.596415" style="fill: #ffffff; stroke: #009e73; stroke-width: 1.1"/>
    </g>
   </g>
   <g id="line2d_20">
    <path d="M 56.752939 290.289466 
L 111.961156 288.191752 
L 167.169372 291.324338 
L 222.377589 292.359211 
L 277.585805 292.359211 
L 332.794022 293.394083 
L 388.002239 294.456925 
L 443.210455 296.52667 
L 498.418672 297.561542 
L 553.626889 294.456925 
L 608.835105 295.491797 
L 619.876749 295.491797 
" clip-path="url(#p1ae09ee682)" style="fill: none; stroke: #cc79a7; stroke-width: 2.2; stroke-linecap: round"/>
    <defs>
     <path id="m7b38468597" d="M 0 2.4 
C 0.636487 2.4 1.246992 2.147121 1.697056 1.697056 
C 2.147121 1.246992 2.4 0.636487 2.4 0 
C 2.4 -0.636487 2.147121 -1.246992 1.697056 -1.697056 
C 1.246992 -2.147121 0.636487 -2.4 0 -2.4 
C -0.636487 -2.4 -1.246992 -2.147121 -1.697056 -1.697056 
C -2.147121 -1.246992 -2.4 -0.636487 -2.4 0 
C -2.4 0.636487 -2.147121 1.246992 -1.697056 1.697056 
C -1.246992 2.147121 -0.636487 2.4 0 2.4 
z
" style="stroke: #cc79a7; stroke-width: 1.1"/>
    </defs>
    <g clip-path="url(#p1ae09ee682)">
     <use xlink:href="#m7b38468597" x="56.752939" y="290.289466" style="fill: #ffffff; stroke: #cc79a7; stroke-width: 1.1"/>
     <use xlink:href="#m7b38468597" x="111.961156" y="288.191752" style="fill: #ffffff; stroke: #cc79a7; stroke-width: 1.1"/>
     <use xlink:href="#m7b38468597" x="167.169372" y="291.324338" style="fill: #ffffff; stroke: #cc79a7; stroke-width: 1.1"/>
     <use xlink:href="#m7b38468597" x="222.377589" y="292.359211" style="fill: #ffffff; stroke: #cc79a7; stroke-width: 1.1"/>
     <use xlink:href="#m7b38468597" x="277.585805" y="292.359211" style="fill: #ffffff; stroke: #cc79a7; stroke-width: 1.1"/>
     <use xlink:href="#m7b38468597" x="332.794022" y="293.394083" style="fill: #ffffff; stroke: #cc79a7; stroke-width: 1.1"/>
     <use xlink:href="#m7b38468597" x="388.002239" y="294.456925" style="fill: #ffffff; stroke: #cc79a7; stroke-width: 1.1"/>
     <use xlink:href="#m7b38468597" x="443.210455" y="296.52667" style="fill: #ffffff; stroke: #cc79a7; stroke-width: 1.1"/>
     <use xlink:href="#m7b38468597" x="498.418672" y="297.561542" style="fill: #ffffff; stroke: #cc79a7; stroke-width: 1.1"/>
     <use xlink:href="#m7b38468597" x="553.626889" y="294.456925" style="fill: #ffffff; stroke: #cc79a7; stroke-width: 1.1"/>
     <use xlink:href="#m7b38468597" x="608.835105" y="295.491797" style="fill: #ffffff; stroke: #cc79a7; stroke-width: 1.1"/>
     <use xlink:href="#m7b38468597" x="619.876749" y="295.491797" style="fill: #ffffff; stroke: #cc79a7; stroke-width: 1.1"/>
    </g>
   </g>
   <g id="patch_3">
    <path d="M 42.674844 315.238281 
L 42.674844 21.558281 
" style="fill: none; stroke: #4a4a4a; stroke-width: 0.8; stroke-linejoin: miter; stroke-linecap: square"/>
   </g>
   <g id="patch_4">
    <path d="M 42.674844 315.238281 
L 633.954844 315.238281 
" style="fill: none; stroke: #4a4a4a; stroke-width: 0.8; stroke-linejoin: miter; stroke-linecap: square"/>
   </g>
   <g id="text_13">
    <text style="font-weight: 600; font-size: 11px; font-family: 'DejaVu Sans'; text-anchor: middle" x="338.314844" y="15.558281" transform="rotate(-0 338.314844 15.558281)">High Source-Copy Rate (↓ better)</text>
   </g>
   <g id="legend_1">
    <g id="patch_5">
     <path d="M 533.727187 81.599531 
L 627.654844 81.599531 
Q 629.454844 81.599531 629.454844 79.799531 
L 629.454844 27.858281 
Q 629.454844 26.058281 627.654844 26.058281 
L 533.727187 26.058281 
Q 531.927187 26.058281 531.927187 27.858281 
L 531.927187 79.799531 
Q 531.927187 81.599531 533.727187 81.599531 
z
" style="fill: #ffffff; opacity: 0.94; stroke: #d6d6d6; stroke-linejoin: miter"/>
    </g>
    <g id="line2d_21">
     <path d="M 535.527187 33.346875 
L 544.527187 33.346875 
L 553.527187 33.346875 
" style="fill: none; stroke: #0072b2; stroke-width: 2.2; stroke-linecap: round"/>
     <g>
      <use xlink:href="#mdbfe342edd" x="544.527187" y="33.346875" style="fill: #ffffff; stroke: #0072b2; stroke-width: 1.1"/>
     </g>
    </g>
    <g id="text_14">
     <text style="font-size: 9px; font-family: 'DejaVu Sans'; text-anchor: start" x="560.727188" y="36.496875" transform="rotate(-0 560.727188 36.496875)">Full (T+V+M)</text>
    </g>
    <g id="line2d_22">
     <path d="M 535.527187 46.557187 
L 544.527187 46.557187 
L 553.527187 46.557187 
" style="fill: none; stroke: #e69f00; stroke-width: 2.2; stroke-linecap: round"/>
     <g>
      <use xlink:href="#m6c781450d5" x="544.527187" y="46.557187" style="fill: #ffffff; stroke: #e69f00; stroke-width: 1.1"/>
     </g>
    </g>
    <g id="text_15">
     <text style="font-size: 9px; font-family: 'DejaVu Sans'; text-anchor: start" x="560.727188" y="49.707187" transform="rotate(-0 560.727188 49.707187)">Target only (T)</text>
    </g>
    <g id="line2d_23">
     <path d="M 535.527187 59.7675 
L 544.527187 59.7675 
L 553.527187 59.7675 
" style="fill: none; stroke: #009e73; stroke-width: 2.2; stroke-linecap: round"/>
     <g>
      <use xlink:href="#me5e1cb2676" x="544.527187" y="59.7675" style="fill: #ffffff; stroke: #009e73; stroke-width: 1.1"/>
     </g>
    </g>
    <g id="text_16">
     <text style="font-size: 9px; font-family: 'DejaVu Sans'; text-anchor: start" x="560.727188" y="62.9175" transform="rotate(-0 560.727188 62.9175)">Visual only (V)</text>
    </g>
    <g id="line2d_24">
     <path d="M 535.527187 72.977812 
L 544.527187 72.977812 
L 553.527187 72.977812 
" style="fill: none; stroke: #cc79a7; stroke-width: 2.2; stroke-linecap: round"/>
     <g>
      <use xlink:href="#m7b38468597" x="544.527187" y="72.977812" style="fill: #ffffff; stroke: #cc79a7; stroke-width: 1.1"/>
     </g>
    </g>
    <g id="text_17">
     <text style="font-size: 9px; font-family: 'DejaVu Sans'; text-anchor: start" x="560.727188" y="76.127813" transform="rotate(-0 560.727188 76.127813)">No condition</text>
    </g>
   </g>
  </g>
 </g>
 <defs>
  <clipPath id="p1ae09ee682">
   <rect x="42.674844" y="21.558281" width="591.28" height="293.68"/>
  </clipPath>
 </defs>
</svg>
